<svg width="502" height="502" viewBox="0 0 502 502" fill="none" xmlns="http://www.w3.org/2000/svg">
  <rect width="502" height="502" rx="80" fill="#8fc319"/>
  <path d="M251 100 C251 100 150 180 150 280 C150 340 195 390 251 390 C307 390 352 340 352 280 C352 180 251 100 251 100Z" fill="white" opacity="0.9"/>
  <path d="M251 160 C251 160 195 220 195 280 C195 313 220 340 251 340 C282 340 307 313 307 280 C307 220 251 160 251 160Z" fill="#293906"/>
  <circle cx="251" cy="280" r="30" fill="#8fc319"/>
</svg>
